<svg xmlns="http://www.w3.org/2000/svg" viewBox="0 0 18 16"><path d="M5.76 6.02c-.58 0-1.04.47-1.04 1.06s.47 1.06 1.04 1.06c.57 0 1.04-.47 1.04-1.06s-.46-1.06-1.04-1.06zm3.2-6C4.38.02.66 3.07.66 6.83c0 2.39 1.55 4.61 4.02 5.83-.39.52-.91.95-1.55 1.26-.29.14-.45.47-.39.79.06.32.33.56.65.58.2.02.41.02.61.02 1.82 0 3.45-.6 4.63-1.69.11 0 .21.01.32.01 4.58 0 8.3-3.05 8.3-6.81S13.53.02 8.96.02zm0 12.16c-.19 0-.37-.01-.55-.02a.724.724 0 0 0-.56.22c-.56.58-1.27 1-2.1 1.25a4.225 4.225 0 0 0 .56-.9l.04-.09c.09-.18.1-.4.03-.59s-.22-.34-.41-.41c-2.36-.9-3.88-2.78-3.88-4.81 0-2.95 3.08-5.36 6.87-5.36s6.87 2.4 6.87 5.36-3.09 5.35-6.87 5.35zm0-6.16c-.58 0-1.04.47-1.04 1.06s.46 1.06 1.04 1.06c.57 0 1.04-.48 1.04-1.06s-.47-1.06-1.04-1.06zm3.19 0c-.57 0-1.04.47-1.04 1.06s.46 1.06 1.04 1.06c.57 0 1.04-.47 1.04-1.06s-.47-1.06-1.04-1.06z" fill="#c7c7c7"/></svg>