<svg xmlns="http://www.w3.org/2000/svg" viewBox="0 0 18 13"><path d="M9.01 2.58c-.4 0-.72.33-.72.74s.32.74.72.74c1.35 0 2.46 1.13 2.46 2.52 0 1.39-1.1 2.52-2.46 2.52-1.36 0-2.46-1.13-2.46-2.52 0-.41-.32-.74-.72-.74-.4 0-.72.33-.72.74 0 2.21 1.75 4 3.9 4s3.89-1.79 3.89-4-1.75-4-3.89-4zm8.24 3.76C16.12 2.78 12.8.39 9.01.39S1.9 2.78.76 6.34c-.05.15-.05.31 0 .46C1.89 10.36 5.2 12.75 9 12.75s7.11-2.39 8.24-5.95c.06-.15.06-.31.01-.46zm-8.24 4.94c-3.09 0-5.79-1.88-6.8-4.71 1.01-2.82 3.71-4.71 6.8-4.71s5.79 1.88 6.8 4.71c-1.01 2.83-3.71 4.71-6.8 4.71z" fill="#c7c7c7"/></svg>