<svg xmlns="http://www.w3.org/2000/svg" viewBox="0 0 16 14"><path d="M11.4 0h-.09c-1.3.02-2.5.59-3.35 1.56A4.574 4.574 0 0 0 4.57.08C3.4.08 2.29.57 1.44 1.44.52 2.39 0 3.74.02 5.14c0 .53.08 1.04.22 1.46.29 1.29 1.81 2.98 4.8 5.33.78.61 1.95 1.43 2.45 1.78l.21.15.09.06a.663.663 0 0 0 .68-.03c.67-.43 1.57-1.11 2.67-2.03 2.87-2.38 4.4-4.16 4.64-5.4.14-.49.21-1 .21-1.53C15.96 2.21 13.9 0 11.4 0zm3.08 6.14c-.11.54-.79 1.86-4.18 4.67-.85.71-1.59 1.28-2.17 1.68-.55-.38-1.57-1.11-2.26-1.64C2.4 8.12 1.68 6.83 1.54 6.24c-.11-.35-.17-.73-.17-1.12-.02-1.03.37-2.03 1.04-2.72.59-.61 1.36-.95 2.21-.95 1.13 0 2.17.6 2.78 1.61.12.21.36.33.59.33.24 0 .46-.13.58-.35.58-1.04 1.62-1.67 2.77-1.68h.07c1.76 0 3.22 1.61 3.24 3.59 0 .39-.05.77-.17 1.19z" fill="#c7c7c7"/></svg>